<svg xmlns="http://www.w3.org/2000/svg" width="600" height="600" viewBox="0 0 600 600" role="img">
  <title>K5Bearing compass rose (faceted)</title>
  <desc>A faceted compass rose with Arctic-white and dark-grey facets on a black background.</desc>
  <rect x="0" y="0" width="600" height="600" fill="#000000"/>
  <g fill="#202225">
    <polygon points="300,300 409.6,190.4 332,300"/>
    <polygon points="300,300 409.6,409.6 300,332"/>
    <polygon points="300,300 190.4,409.6 268,300"/>
    <polygon points="300,300 190.4,190.4 300,268"/>
    <polygon points="300,300 300,65 329.7,270.3"/>
    <polygon points="300,300 535,300 329.7,329.7"/>
    <polygon points="300,300 300,535 270.3,329.7"/>
    <polygon points="300,300 65,300 270.3,270.3"/>
  </g>
  <g>
    <polygon fill="none" stroke="#F4F9FF" stroke-width="1.5" stroke-linejoin="miter" points="409.6,190.4 332,300 409.6,409.6 300,332 190.4,409.6 268,300 190.4,190.4 300,268"/>
    <polygon fill="#F4F9FF" points="300,300 300,268 409.6,190.4"/>
    <polygon fill="#F4F9FF" points="300,300 332,300 409.6,409.6"/>
    <polygon fill="#F4F9FF" points="300,300 300,332 190.4,409.6"/>
    <polygon fill="#F4F9FF" points="300,300 268,300 190.4,190.4"/>
  </g>
  <g>
    <polygon fill="none" stroke="#F4F9FF" stroke-width="1.5" stroke-linejoin="miter" points="300,65 329.7,270.3 535,300 329.7,329.7 300,535 270.3,329.7 65,300 270.3,270.3"/>
    <polygon fill="#F4F9FF" points="300,300 270.3,270.3 300,65"/>
    <polygon fill="#F4F9FF" points="300,300 329.7,270.3 535,300"/>
    <polygon fill="#F4F9FF" points="300,300 329.7,329.7 300,535"/>
    <polygon fill="#F4F9FF" points="300,300 270.3,329.7 65,300"/>
  </g>
</svg>
